<mxfile host="app.diagrams.net" modified="2023-08-17T09:53:36.584Z" agent="Mozilla/5.0 (Macintosh; Intel Mac OS X 10_15_7) AppleWebKit/537.36 (KHTML, like Gecko) Chrome/115.0.0.0 Safari/537.36" version="21.6.6" etag="iV68JVnTs7NLRHHNSxWm" type="github">
  <diagram name="Page-1" id="5DsjO6dGdmBg-zCnN2zg">
    <mxGraphModel>
      <root>
        <mxCell id="0" />
        <mxCell id="1" parent="0" />
      </root>
    </mxGraphModel>
  </diagram>
</mxfile>
